<?xml version="1.0" standalone="no"?>
<!DOCTYPE svg PUBLIC "-//W3C//DTD SVG 20010904//EN"
 "http://www.w3.org/TR/2001/REC-SVG-20010904/DTD/svg10.dtd">
<svg version="1.0" xmlns="http://www.w3.org/2000/svg"
 width="260.000000pt" height="260.000000pt" viewBox="0 0 260.000000 260.000000"
 preserveAspectRatio="xMidYMid meet">
<metadata>
Created by potrace 1.11, written by Peter Selinger 2001-2013
</metadata>
<g transform="translate(0.000000,260.000000) scale(0.100000,-0.100000)"
fill="#000000" stroke="none">
<path d="M1158 2595 c-2 -1 -28 -5 -59 -8 -30 -4 -62 -8 -70 -11 -8 -3 -30 -7
-49 -10 -137 -20 -332 -115 -496 -242 -209 -161 -382 -419 -451 -669 -26 -96
-27 -110 -28 -335 0 -223 2 -256 24 -340 57 -220 168 -408 346 -585 260 -260
543 -379 905 -380 141 0 184 3 275 20 38 7 157 42 193 57 15 6 32 12 39 14 45
9 253 129 253 146 0 5 4 7 8 4 5 -3 25 10 44 27 20 18 55 47 77 65 23 19 38
39 34 44 -3 6 -1 8 4 5 13 -8 46 27 36 37 -5 4 -1 6 7 4 8 -2 14 3 12 10 -1 8
1 11 6 8 5 -3 26 18 48 47 21 29 45 58 52 65 6 8 9 19 5 25 -3 7 -3 9 2 5 10
-9 65 80 110 177 38 82 81 212 90 276 4 24 10 64 15 89 15 80 4 325 -19 437
-22 105 -64 230 -102 304 -31 62 -104 177 -131 207 -13 15 -34 41 -46 57 -13
17 -26 29 -29 27 -3 -2 -11 7 -18 20 -6 13 -17 22 -24 20 -7 -1 -10 2 -7 7 8
12 -98 101 -199 166 -147 96 -295 160 -430 184 -33 6 -71 14 -85 17 -25 6
-336 14 -342 9z"/>
</g>
</svg>
